<svg width="15" height="15" viewBox="0 0 15 15" fill="none" xmlns="http://www.w3.org/2000/svg">
<path d="M11.9638 6.34545C12.0589 6.71477 12.1151 7.10066 12.1151 7.49967C12.1151 10.049 10.0489 12.1151 7.49993 12.1151C4.9511 12.1151 2.88476 10.049 2.88476 7.49967C2.88476 7.10066 2.94122 6.71477 3.03636 6.34545H1.73041V12.6921C1.73041 13.0103 1.98882 13.2685 2.30792 13.2685H12.6921C13.0112 13.2685 13.2696 13.0103 13.2696 12.6921V6.34545H11.9638ZM12.6921 1.73041H10.9617C10.643 1.73041 10.3848 1.98882 10.3848 2.30725V4.03832C10.3848 4.35676 10.643 4.61517 10.9617 4.61517H12.6921C13.0112 4.61517 13.2696 4.35676 13.2696 4.03832V2.30725C13.2696 1.98882 13.0112 1.73041 12.6921 1.73041ZM4.6153 7.49967C4.6153 9.09266 5.90668 10.3846 7.49993 10.3846C9.09319 10.3846 10.3848 9.09266 10.3848 7.49967C10.3848 5.90642 9.09319 4.61517 7.49993 4.61517C5.90668 4.61517 4.6153 5.90642 4.6153 7.49967ZM1.73041 14.9999C0.774827 14.9999 0 14.2248 0 13.2685V1.73041C0 0.774695 0.774827 0 1.73041 0H13.2696C14.2253 0 15 0.774695 15 1.73041V13.2685C15 14.2248 14.2253 14.9999 13.2696 14.9999H1.73041Z" fill="white"/>
</svg>
