<svg width="16" height="12" viewBox="0 0 16 12" fill="none" xmlns="http://www.w3.org/2000/svg">
<g clip-path="url(#clip0)">
<path d="M13.6093 1.96045C14.2627 1.60345 14.7647 1.03795 15.0009 0.36407C14.3892 0.69482 13.712 0.93482 12.9909 1.0642C12.4138 0.50357 11.5911 0.15332 10.6806 0.15332C8.93284 0.15332 7.51554 1.4452 7.51554 3.03857C7.51554 3.2647 7.54345 3.48482 7.5974 3.69595C4.96708 3.57557 2.6348 2.42695 1.07387 0.68132C0.801494 1.10732 0.645215 1.60307 0.645215 2.13182C0.645215 3.1327 1.2041 4.01582 2.05322 4.53332C1.53452 4.51832 1.04633 4.38857 0.619541 4.17257C0.619169 4.18457 0.619169 4.19657 0.619169 4.20895C0.619169 5.60695 1.71015 6.77282 3.15796 7.03794C2.89229 7.10395 2.61284 7.1392 2.3241 7.1392C2.12019 7.1392 1.92187 7.12119 1.72875 7.08745C2.13173 8.23382 3.30047 9.06782 4.6854 9.09107C3.60224 9.86507 2.2374 10.3263 0.754611 10.3263C0.498983 10.3263 0.247076 10.3128 -0.000366211 10.2858C1.40019 11.1044 3.06382 11.5822 4.85136 11.5822C10.6731 11.5822 13.8568 7.1857 13.8568 3.37307C13.8568 3.24782 13.8538 3.1237 13.8474 2.99995C14.4659 2.59307 15.0024 2.08532 15.4266 1.5067C14.8592 1.7362 14.2489 1.89107 13.6089 1.96082L13.6093 1.96045Z" fill="white"/>
</g>
<defs>
<clipPath id="clip0">
<rect width="16" height="12" fill="white"/>
</clipPath>
</defs>
</svg>
