<svg width="15" height="15" viewBox="0 0 15 15" fill="none" xmlns="http://www.w3.org/2000/svg">
<g clip-path="url(#clip0)">
<path d="M-0.218132 0.942414C-0.218132 0.942414 13.4536 0.269253 14.5312 14.6813H11.7699C11.7699 14.6813 12.3093 4.17539 -0.218132 3.23206V0.942414ZM-0.218132 5.72471C-0.218132 5.72471 7.79664 5.45454 9.34546 14.6813H6.58465C6.58465 14.6813 6.24832 9.22685 -0.218132 8.01285V5.72471ZM1.28257 11.733C2.24895 11.733 3.03389 12.516 3.03389 13.4844C3.03389 14.4507 2.24895 15.2352 1.28257 15.2352C0.315184 15.2352 -0.46875 14.4512 -0.46875 13.4844C-0.46875 12.5165 0.315184 11.733 1.28257 11.733Z" fill="white"/>
</g>
<defs>
<clipPath id="clip0">
<rect width="15" height="15" fill="white"/>
</clipPath>
</defs>
</svg>
