<svg width="15" height="15" viewBox="0 0 15 15" fill="none" xmlns="http://www.w3.org/2000/svg">
<path d="M14.8422 4.14973C14.8422 4.14973 14.6957 3.11662 14.2462 2.66168C13.6761 2.06457 13.0371 2.0616 12.7441 2.02666C10.6462 1.875 7.49921 1.875 7.49921 1.875H7.49269C7.49269 1.875 4.3458 1.875 2.24783 2.02666C1.95477 2.0616 1.31599 2.06457 0.7457 2.66168C0.296199 3.11662 0.149927 4.14973 0.149927 4.14973C0.149927 4.14973 0 5.36294 0 6.57614V7.71351C0 8.92669 0.149927 10.1399 0.149927 10.1399C0.149927 10.1399 0.296199 11.173 0.7457 11.6279C1.31599 12.2251 2.06511 12.2062 2.39877 12.2688C3.59814 12.3838 7.49596 12.4194 7.49596 12.4194C7.49596 12.4194 10.6462 12.4146 12.7441 12.263C13.0371 12.228 13.6761 12.2251 14.2462 11.6279C14.6957 11.173 14.8422 10.1399 14.8422 10.1399C14.8422 10.1399 14.9919 8.92669 14.9919 7.71351V6.57614C14.9919 5.36294 14.8422 4.14973 14.8422 4.14973ZM5.94822 9.09179L5.94753 4.87946L9.99841 6.99296L5.94822 9.09179Z" fill="white"/>
</svg>
